<svg width="102" height="106" viewBox="0 0 102 106" fill="none" xmlns="http://www.w3.org/2000/svg">
<path d="M82.43 37.8V66.0447H21.719V37.8C21.719 30.9099 27.7972 25.3239 35.2959 25.3239H68.8531C76.3512 25.3245 82.43 30.9104 82.43 37.8Z" fill="#FDF1F2"/>
<path d="M82.43 66.0447V68.6363C82.43 75.5271 76.3512 81.113 68.8531 81.113H35.2959C27.7972 81.113 21.719 75.5271 21.719 68.6363V66.0447H82.43Z" fill="#F04D58"/>
<path d="M34.64 79.2608V67.5006H39.468C40.3173 67.5006 40.967 67.5383 41.4142 67.613C42.0424 67.7093 42.5698 67.8926 42.9945 68.1628C43.4191 68.433 43.7614 68.8119 44.0205 69.2984C44.2796 69.785 44.4091 70.3197 44.4091 70.9026C44.4091 71.9031 44.0627 72.7487 43.3707 73.4421C42.6778 74.1346 41.4266 74.4813 39.6171 74.4813H36.3343V79.2627H34.64V79.2608ZM36.3343 73.0916H39.6428C40.7367 73.0916 41.514 72.9045 41.9735 72.5304C42.4331 72.1563 42.6634 71.6291 42.6634 70.9498C42.6634 70.4576 42.5277 70.0363 42.2573 69.6867C41.9869 69.3362 41.6302 69.1047 41.1881 68.9933C40.9033 68.9234 40.3759 68.8893 39.6079 68.8893H36.3343V73.0916ZM47.2807 79.2608V67.5006H51.6892C52.6844 67.5006 53.4442 67.5563 53.9675 67.6687C54.7005 67.8237 55.3267 68.1043 55.8448 68.5114C56.5203 69.0358 57.0251 69.7056 57.3592 70.5209C57.6934 71.3362 57.861 72.2687 57.861 73.3165C57.861 74.2092 57.7479 75.0009 57.5207 75.6906C57.2934 76.3803 57.0025 76.9519 56.6478 77.4034C56.2931 77.855 55.9045 78.2112 55.4819 78.4701C55.0604 78.7299 54.5504 78.9264 53.9541 79.0596C53.3578 79.1938 52.6721 79.2599 51.8979 79.2599L47.2807 79.2608ZM48.974 77.873H51.7067C52.5508 77.873 53.2129 77.8012 53.693 77.6566C54.1731 77.5121 54.5556 77.309 54.8414 77.0473C55.2434 76.6779 55.5559 76.1819 55.7801 75.5593C56.0042 74.9367 56.1163 74.1809 56.1163 73.2928C56.1163 72.0628 55.8962 71.118 55.4572 70.4567C55.0182 69.7963 54.4836 69.3532 53.8554 69.1293C53.401 68.9687 52.6711 68.8884 51.6645 68.8884H48.976V77.873H48.974ZM60.9947 79.2608V67.5006H69.6287V68.8884H62.689V72.5304H68.6952V73.9183H62.689V79.2608H60.9947Z" fill="white"/>
<path d="M50.1633 43.2269C49.5814 44.9827 48.7467 46.8551 47.6086 48.9186C47.1031 49.8198 46.546 50.6727 46.3437 51.3853L46.6223 51.2898C49.8351 50.1283 52.8706 49.4639 55.0713 49.0843C54.6917 48.8467 54.3378 48.5864 54.0344 48.326C52.5157 47.1163 51.2002 45.3614 50.1633 43.2269ZM66.5549 52.2628C66.1247 52.7125 65.3663 52.9737 64.253 52.9737C62.3299 52.9737 59.1943 52.4285 56.6644 51.2188C52.3135 51.6694 49.0758 52.2146 46.4706 52.9974C46.3437 53.0447 46.192 53.0921 46.0156 53.1631C42.879 58.1895 40.5514 60.4432 38.5023 60.4432C38.0978 60.4432 37.6924 60.3477 37.3891 60.182L36.1747 59.4465L36.0984 59.3282C35.9209 58.9013 35.8704 58.4972 35.9715 58.0475C36.2501 56.7913 37.6915 54.7988 40.7269 53.0202C41.2077 52.6871 41.9661 52.3093 42.9782 51.8587C43.7375 50.6253 44.5465 49.179 45.4069 47.5897C46.6976 45.1475 47.5066 42.7281 48.139 40.6418V40.6181C47.2032 37.749 46.6461 36.0186 47.5829 32.8638C47.8099 31.9626 48.6456 31.0378 49.5814 31.0378H50.1891C50.771 31.0378 51.3271 31.2272 51.7316 31.6067C53.401 33.1714 52.6168 36.9899 51.7821 40.143C51.7316 40.2859 51.7058 40.4042 51.681 40.4752C52.6932 43.1541 54.1346 45.3132 55.7286 46.5457C56.3859 47.0199 57.1204 47.4941 57.9293 47.9219C59.0674 47.8027 60.1549 47.7554 61.1928 47.7554C64.3293 47.7554 66.2267 48.2778 66.9603 49.3911C67.2131 49.7715 67.34 50.2212 67.2637 50.6963C67.2379 51.2898 67.0099 51.8359 66.5549 52.2628ZM65.518 50.578C65.2652 50.3413 64.253 49.7479 60.712 49.7479C60.5346 49.7479 60.3581 49.7479 60.1301 49.9854C61.9769 50.7446 63.7722 51.1951 64.9361 51.1951C65.1135 51.1951 65.2652 51.1715 65.4168 51.1478H65.518C65.6448 51.1005 65.7202 51.0768 65.746 50.8392C65.6944 50.7674 65.6448 50.6727 65.518 50.578ZM42.3219 54.0406C41.7905 54.3255 41.3603 54.5858 41.1075 54.776C39.3113 56.3171 38.1732 57.8827 38.0473 58.7829C39.1853 58.4279 40.6773 56.8623 42.3219 54.0406ZM49.9611 37.6544L50.0879 37.5588C50.2654 36.8006 50.3407 36.1361 50.4924 35.6145L50.5687 35.2367C50.8215 33.8841 50.771 33.1969 50.3407 32.628L49.9611 32.5087C49.9105 32.5806 49.8342 32.699 49.7846 32.7936C49.3544 33.7894 49.3792 35.5207 49.9611 37.6544Z" fill="#F04D58"/>
<path d="M62.2125 11.8672L63.9628 12.8874C64.6545 13.3064 65.1421 13.962 65.3207 14.7131C65.4992 15.4642 65.3544 16.2506 64.9173 16.903C64.4803 17.5554 63.786 18.0216 62.9841 18.2012C62.1822 18.3807 61.3367 18.2593 60.6298 17.863L52.4781 13.1114C51.7709 12.6991 51.2682 12.0416 51.0806 11.2835C50.893 10.5254 51.0358 9.72892 51.4777 9.06908L56.5997 1.42269C56.8149 1.08877 57.0991 0.798146 57.4359 0.567796C57.7728 0.337445 58.1554 0.171975 58.5615 0.0810414C58.9676 -0.00989241 59.3891 -0.0244693 59.8013 0.0381615C60.2135 0.100792 60.6082 0.239377 60.9624 0.445828C61.3166 0.65228 61.6231 0.922462 61.8642 1.24061C62.1052 1.55876 62.2759 1.91851 62.3663 2.29886C62.4567 2.67922 62.465 3.07256 62.3907 3.45593C62.3164 3.83931 62.161 4.20504 61.9336 4.5318L60.8847 6.09767C79.7111 4.07876 97.556 15.5325 101.919 33.1627C102.107 33.9209 101.964 34.7176 101.522 35.3775C101.08 36.0374 100.375 36.5065 99.5623 36.6815C98.7495 36.8566 97.8954 36.7233 97.188 36.3109C96.4806 35.8986 95.9777 35.241 95.7901 34.4827C92.2022 19.9857 77.6692 10.5017 62.2125 11.8672Z" fill="#F04D58"/>
<path d="M37.0434 93.8335L35.42 92.653C34.7801 92.1706 34.3659 91.4697 34.2667 90.7011C34.1675 89.9325 34.3911 89.1578 34.8895 88.5438C35.3878 87.9297 36.121 87.5256 36.9312 87.4183C37.7413 87.311 38.5635 87.5092 39.2207 87.9702L46.7813 93.4685C47.4372 93.9456 47.8661 94.6498 47.9735 95.4262C48.081 96.2026 47.8583 96.9877 47.3545 97.6087L41.5136 104.805C41.267 105.12 40.9566 105.386 40.6004 105.586C40.2443 105.786 39.8495 105.917 39.4393 105.972C39.029 106.026 38.6115 106.002 38.2109 105.902C37.8104 105.802 37.4349 105.628 37.1064 105.389C36.7779 105.15 36.503 104.851 36.2976 104.511C36.0923 104.17 35.9606 103.794 35.9104 103.405C35.8601 103.016 35.8923 102.621 36.0049 102.244C36.1176 101.866 36.3085 101.514 36.5666 101.207L37.7627 99.7337C18.9692 100.052 2.52631 86.9615 0.0264596 68.9043C-0.0810485 68.1278 0.141741 67.3426 0.645822 66.7215C1.1499 66.1005 1.89398 65.6944 2.71437 65.5926C3.53476 65.4908 4.36425 65.7017 5.02037 66.1789C5.67649 66.656 6.10549 67.3604 6.213 68.1369C8.26858 82.9849 21.6437 93.8019 37.0434 93.8335Z" fill="#F04D58"/>
</svg>
